HIERARCHY
ROOT Hips
{
  OFFSET 5.80788e-005 67.184 3.4734
  CHANNELS 6 Xposition Yposition Zposition Zrotation Xrotation Yrotation
  JOINT Chest
  {
    OFFSET 0 8.7983 -4.7612
    CHANNELS 3 Zrotation Xrotation Yrotation
    JOINT Chest2
    {
      OFFSET 0 8.0291 0.4195
      CHANNELS 3 Zrotation Xrotation Yrotation
      JOINT Chest3
      {
        OFFSET 0 9.9351 -2.2114
        CHANNELS 3 Zrotation Xrotation Yrotation
        JOINT Neck
        {
          OFFSET 0 22.3885 -0.4656
          CHANNELS 3 Zrotation Xrotation Yrotation
          JOINT Head
          {
            OFFSET -0.0001 12.643 3.4389
            CHANNELS 3 Zrotation Xrotation Yrotation
            End Site
            {
              OFFSET 0.0001 17.6655 0.5274
            }
          }
        }
        JOINT LeftCollar
        {
          OFFSET 2.2603 21.606 7.4023
          CHANNELS 3 Zrotation Xrotation Yrotation
          JOINT LeftShoulder
          {
            OFFSET 13.5163 -1.1332 -5.0146
            CHANNELS 3 Zrotation Xrotation Yrotation
            JOINT LeftElbow
            {
              OFFSET -0.0995 -28.05 -0.2431
              CHANNELS 3 Zrotation Xrotation Yrotation
              JOINT LeftWrist
              {
                OFFSET 0.0679 -23.3996 -0.1402
                CHANNELS 3 Zrotation Xrotation Yrotation
                JOINT LeftFinger1
                {
                  OFFSET 0.7932 -9.069 2.5189
                  CHANNELS 3 Zrotation Xrotation Yrotation
                  JOINT LeftFinger11
                  {
                    OFFSET -0.8272 -3.3923 0.5977
                    CHANNELS 3 Zrotation Xrotation Yrotation
                    JOINT LeftFinger12
                    {
                      OFFSET -0.5649 -2.3158 0.4082
                      CHANNELS 3 Zrotation Xrotation Yrotation
                      End Site
                      {
                        OFFSET -0.4919 -1.6479 0.2673
                      }
                    }
                  }
                }
                JOINT LeftFinger2
                {
                  OFFSET 0.9159 -9.2044 0.2193
                  CHANNELS 3 Zrotation Xrotation Yrotation
                  JOINT LeftFinger21
                  {
                    OFFSET 0.0117 -4.1944 -0.0248
                    CHANNELS 3 Zrotation Xrotation Yrotation
                    JOINT LeftFinger22
                    {
                      OFFSET 0.0071 -2.3249 -0.0142
                      CHANNELS 3 Zrotation Xrotation Yrotation
                      End Site
                      {
                        OFFSET -0.1475 -2.0882 0.0028
                      }
                    }
                  }
                }
                JOINT LeftFinger3
                {
                  OFFSET 0.6113 -8.7231 -2.0637
                  CHANNELS 3 Zrotation Xrotation Yrotation
                  JOINT LeftFinger31
                  {
                    OFFSET -0.1927 -3.8059 -0.2383
                    CHANNELS 3 Zrotation Xrotation Yrotation
                    JOINT LeftFinger32
                    {
                      OFFSET -0.1091 -2.1688 -0.1362
                      CHANNELS 3 Zrotation Xrotation Yrotation
                      End Site
                      {
                        OFFSET -0.2358 -1.9176 -0.0906
                      }
                    }
                  }
                }
                JOINT LeftFinger4
                {
                  OFFSET -0.6151 -8.0947 -3.5641
                  CHANNELS 3 Zrotation Xrotation Yrotation
                  JOINT LeftFinger41
                  {
                    OFFSET -0.4882 -2.341 -0.6462
                    CHANNELS 3 Zrotation Xrotation Yrotation
                    JOINT LeftFinger42
                    {
                      OFFSET -0.3575 -1.7167 -0.4742
                      CHANNELS 3 Zrotation Xrotation Yrotation
                      End Site
                      {
                        OFFSET -0.4187 -1.5237 -0.3496
                      }
                    }
                  }
                }
                JOINT LeftFinger0
                {
                  OFFSET -1.42 -1.8761 1.4223
                  CHANNELS 3 Zrotation Xrotation Yrotation
                  JOINT LeftFinger01
                  {
                    OFFSET -1.1471 -3.4929 2.6334
                    CHANNELS 3 Zrotation Xrotation Yrotation
                    JOINT LeftFinger02
                    {
                      OFFSET -0.823 -2.3 1.6571
                      CHANNELS 3 Zrotation Xrotation Yrotation
                      End Site
                      {
                        OFFSET -0.5822 -1.6914 1.1582
                      }
                    }
                  }
                }
              }
            }
          }
        }
        JOINT RightCollar
        {
          OFFSET -2.2603 21.606 7.4023
          CHANNELS 3 Zrotation Xrotation Yrotation
          JOINT RightShoulder
          {
            OFFSET -13.5187 -1.1334 -5.0155
            CHANNELS 3 Zrotation Xrotation Yrotation
            JOINT RightElbow
            {
              OFFSET 0.0994 -28.0499 -0.2431
              CHANNELS 3 Zrotation Xrotation Yrotation
              JOINT RightWrist
              {
                OFFSET -0.0679 -23.3996 -0.1402
                CHANNELS 3 Zrotation Xrotation Yrotation
                JOINT RightFinger1
                {
                  OFFSET -0.7932 -9.0691 2.5189
                  CHANNELS 3 Zrotation Xrotation Yrotation
                  JOINT RightFinger11
                  {
                    OFFSET 0.8272 -3.3923 0.5977
                    CHANNELS 3 Zrotation Xrotation Yrotation
                    JOINT RightFinger12
                    {
                      OFFSET 0.565 -2.3158 0.4082
                      CHANNELS 3 Zrotation Xrotation Yrotation
                      End Site
                      {
                        OFFSET 0.4919 -1.6479 0.2673
                      }
                    }
                  }
                }
                JOINT RightFinger2
                {
                  OFFSET -0.916 -9.2044 0.2193
                  CHANNELS 3 Zrotation Xrotation Yrotation
                  JOINT RightFinger21
                  {
                    OFFSET -0.0117 -4.1944 -0.0248
                    CHANNELS 3 Zrotation Xrotation Yrotation
                    JOINT RightFinger22
                    {
                      OFFSET -0.0071 -2.3249 -0.0142
                      CHANNELS 3 Zrotation Xrotation Yrotation
                      End Site
                      {
                        OFFSET 0.1475 -2.0882 0.0028
                      }
                    }
                  }
                }
                JOINT RightFinger3
                {
                  OFFSET -0.6113 -8.7231 -2.0637
                  CHANNELS 3 Zrotation Xrotation Yrotation
                  JOINT RightFinger31
                  {
                    OFFSET 0.1927 -3.8059 -0.2383
                    CHANNELS 3 Zrotation Xrotation Yrotation
                    JOINT RightFinger32
                    {
                      OFFSET 0.1091 -2.1688 -0.1362
                      CHANNELS 3 Zrotation Xrotation Yrotation
                      End Site
                      {
                        OFFSET 0.2358 -1.9176 -0.0906
                      }
                    }
                  }
                }
                JOINT RightFinger4
                {
                  OFFSET 0.6151 -8.0947 -3.564
                  CHANNELS 3 Zrotation Xrotation Yrotation
                  JOINT RightFinger41
                  {
                    OFFSET 0.4882 -2.341 -0.6462
                    CHANNELS 3 Zrotation Xrotation Yrotation
                    JOINT RightFinger42
                    {
                      OFFSET 0.3574 -1.7166 -0.4742
                      CHANNELS 3 Zrotation Xrotation Yrotation
                      End Site
                      {
                        OFFSET 0.4187 -1.5237 -0.3496
                      }
                    }
                  }
                }
                JOINT RightFinger0
                {
                  OFFSET 1.4199 -1.8761 1.4221
                  CHANNELS 3 Zrotation Xrotation Yrotation
                  JOINT RightFinger01
                  {
                    OFFSET 1.1472 -3.4929 2.6336
                    CHANNELS 3 Zrotation Xrotation Yrotation
                    JOINT RightFinger02
                    {
                      OFFSET 0.8229 -2.3 1.6571
                      CHANNELS 3 Zrotation Xrotation Yrotation
                      End Site
                      {
                        OFFSET 0.5822 -1.6914 1.1582
                      }
                    }
                  }
                }
              }
            }
          }
        }
      }
    }
  }
  JOINT RightHip
  {
    OFFSET -9.412 3.9771 -0.7758
    CHANNELS 3 Zrotation Xrotation Yrotation
    JOINT RightKnee
    {
      OFFSET -0.7531 -40.938 0
      CHANNELS 3 Zrotation Xrotation Yrotation
      JOINT RightAnkle
      {
        OFFSET 0 -40.1986 0
        CHANNELS 3 Zrotation Xrotation Yrotation
        JOINT RightToe
        {
          OFFSET 0 -4.4182 9.239
          CHANNELS 3 Zrotation Xrotation Yrotation
          End Site
          {
            OFFSET 0 0 6.1981
          }
        }
      }
    }
  }
  JOINT LeftHip
  {
    OFFSET 9.4119 3.9773 -0.7758
    CHANNELS 3 Zrotation Xrotation Yrotation
    JOINT LeftKnee
    {
      OFFSET 0.7532 -40.9383 0
      CHANNELS 3 Zrotation Xrotation Yrotation
      JOINT LeftAnkle
      {
        OFFSET 0 -40.1986 0
        CHANNELS 3 Zrotation Xrotation Yrotation
        JOINT LeftToe
        {
          OFFSET 0 -4.4182 9.239
          CHANNELS 3 Zrotation Xrotation Yrotation
          End Site
          {
            OFFSET 0 0 6.1981
          }
        }
      }
    }
  }
}
MOTION
Frames:	4
Frame Time:	0.0333333
0.00593511 -20.0224 -1.48455 3.66335e-008 22.6474 4.63862e-008 -0.246706 1.25162 -0.180234 -0.489649 2.50404 -0.355203 -0.489649 2.50403 -0.355203 3.39912e-005 6.99663 2.76825e-005 -3.19869e-007 9.45006 -1.21069e-007 5.51574 14.2661 -7.28348 9.26032 5.18805 24.6272 -25.5377 4.49786 -6.04081 -4.39096 -27.8163 -8.19684 4.07394e-007 1.60479e-006 1.20197e-007 -3.4383e-008 1.64201e-006 1.73562e-006 -3.97569e-016 1.59028e-015 -0 4.07394e-007 1.60479e-006 1.20197e-007 -0.0128064 0.00232337 8.64458e-005 5.48874e-006 -1.06329e-006 -3.00616e-007 4.07394e-007 1.60479e-006 1.20197e-007 -0.0160732 0.00300536 0.00085648 -2.20884e-007 3.48333e-008 8.07699e-007 4.07394e-007 1.60479e-006 1.20197e-007 -0.0125981 0.00312515 0.00283081 -4.41792e-007 6.96848e-008 1.61539e-006 4.07394e-007 1.60479e-006 1.20197e-007 -3.4383e-008 1.64201e-006 1.73562e-006 -3.97569e-016 1.59028e-015 -0 1.18356 3.56894 14.1081 -7.43319 -13.7017 14.0367 13.2458 -34.9739 13.0858 -0.0622378 2.90181 -30.5434 7.93185e-006 1.97407e-006 -1.33894e-006 3.97569e-015 0 -1.59028e-015 -9.22207e-008 -8.37962e-007 -8.44535e-007 7.93185e-006 1.97407e-006 -1.33894e-006 0.0129702 0.00231791 -8.78497e-005 2.98177e-016 -8.4301e-007 7.95139e-016 7.93185e-006 1.97407e-006 -1.33894e-006 0.0163241 0.00303201 -0.000872362 -4.60759e-008 -4.18995e-007 -4.22271e-007 7.93185e-006 1.97407e-006 -1.33894e-006 0.0145547 0.00366926 -0.00325558 -4.87022e-015 -4.34035e-007 -0 7.93185e-006 1.97407e-006 -1.33894e-006 3.97569e-015 0 -1.59028e-015 -9.22207e-008 -8.37962e-007 -8.44535e-007 1.27173 -21.0647 -14.8513 -137.241 80.7425 135.417 11.0915 25.0693 -13.9023 2.05366e-006 -6.11201e-006 5.38632e-007 -1.18573 -22.3693 14.5739 116.777 82.1853 -115.496 -27.2526 52.3483 47.7399 1.60174e-006 1.25546e-006 -2.2539e-007 
0.00592854 -20.0182 -1.36863 1.57846e-007 22.2969 -3.98478e-008 -0.247599 1.53853 -0.179989 -0.490627 3.07785 -0.353515 -0.490627 3.07786 -0.353515 -4.11402e-006 6.99685 -3.47559e-006 -9.56796e-008 9.90095 -1.00969e-007 5.39001 13.3705 -7.35587 9.26034 5.18805 24.6272 -25.3613 4.46971 -5.97153 -4.44757 -27.84 -7.98329 3.97569e-016 3.18055e-015 1.59028e-015 -1.19271e-015 0 6.36111e-015 -1.19271e-015 3.18055e-015 3.18055e-015 3.97569e-016 3.18055e-015 1.59028e-015 -0.0127883 0.00231711 8.35772e-005 -1.98785e-015 1.59028e-015 1.59028e-015 3.97569e-016 3.18055e-015 1.59028e-015 -0.0160868 0.00299858 0.000854619 -1.20316e-006 -1.83131e-006 -3.19232e-006 3.97569e-016 3.18055e-015 1.59028e-015 -0.0126133 0.00312386 0.00282914 7.3244e-006 -2.86057e-006 2.19431e-006 3.97569e-016 3.18055e-015 1.59028e-015 -1.19271e-015 0 6.36111e-015 -1.19271e-015 3.18055e-015 3.18055e-015 1.67057 3.30383 14.1281 -8.22883 -14.2202 14.0126 13.2441 -34.9739 13.1067 0.279881 2.32234 -29.9307 1.70044e-006 -4.34829e-007 1.24531e-007 4.6589e-006 -6.37288e-009 -6.80995e-007 -2.18663e-015 -7.95139e-016 -0 1.70044e-006 -4.34829e-007 1.24531e-007 0.01295 0.00231553 -8.44439e-005 -4.676e-008 -1.18039e-006 -4.21552e-007 1.70044e-006 -4.34829e-007 1.24531e-007 0.0163084 0.0030303 -0.000870729 7.74964e-006 1.68481e-007 -2.48672e-006 1.70044e-006 -4.34829e-007 1.24531e-007 0.014572 0.00367467 -0.00325871 9.34973e-008 -1.71442e-006 8.43112e-007 1.70044e-006 -4.34829e-007 1.24531e-007 4.6589e-006 -6.37288e-009 -6.80995e-007 -2.18663e-015 -7.95139e-016 -0 1.29645 -20.5857 -14.8147 -137.135 80.7642 135.314 11.0909 25.0696 -13.9012 -5.80964e-006 -4.03597e-006 7.51109e-007 -1.20492 -21.8879 14.5437 116.596 82.2006 -115.318 -27.2511 52.3492 47.7383 1.79168e-006 -4.23616e-007 1.56558e-007 
0.00591996 -20.0137 -1.25273 -1.34994e-007 21.9464 -2.97953e-008 -0.248459 1.82513 -0.179724 -0.491559 3.65103 -0.351791 -0.491557 3.651 -0.35179 6.84583e-006 6.99678 5.61649e-006 -1.03212e-007 10.3518 -1.96176e-007 5.26365 12.4749 -7.42993 9.26034 5.18806 24.6272 -25.1846 4.44149 -5.90305 -4.50406 -27.8639 -7.76971 -1.98785e-015 3.18055e-015 -1.59028e-015 -7.95139e-016 -3.18055e-015 1.59028e-015 -1.59028e-015 0 1.59028e-015 -1.98785e-015 3.18055e-015 -1.59028e-015 -0.0128 0.00231828 8.68305e-005 -2.19132e-006 2.47362e-006 -4.18364e-007 -1.98785e-015 3.18055e-015 -1.59028e-015 -0.0160376 0.00299166 0.000854564 -3.53113e-031 -6.36111e-015 -3.18055e-015 -1.98785e-015 3.18055e-015 -1.59028e-015 -0.0125616 0.00311259 0.00282518 -3.97569e-016 0 -0 -1.98785e-015 3.18055e-015 -1.59028e-015 -7.95139e-016 -3.18055e-015 1.59028e-015 -1.59028e-015 0 1.59028e-015 2.15755 3.0386 14.1503 -9.0265 -14.7382 13.9809 13.2426 -34.974 13.1277 0.627972 1.74676 -29.3149 -6.95746e-015 8.37469e-007 1.59028e-015 -1.897e-007 1.321e-006 -1.68302e-006 1.25757e-005 1.51173e-006 -2.05279e-006 -6.95746e-015 8.37469e-007 1.59028e-015 0.0129611 0.00232378 -9.18791e-005 6.28732e-006 1.62017e-006 -1.02613e-006 -6.95746e-015 8.37469e-007 1.59028e-015 0.0163282 0.00303165 -0.00087283 2.95404e-006 6.18655e-007 -2.19605e-006 -6.95746e-015 8.37469e-007 1.59028e-015 0.0145882 0.00367782 -0.00326343 -4.01922e-007 5.96514e-006 -1.82132e-006 -6.95746e-015 8.37469e-007 1.59028e-015 -1.897e-007 1.321e-006 -1.68302e-006 1.25757e-005 1.51173e-006 -2.05279e-006 1.32079 -20.1067 -14.7785 -137.029 80.7859 135.211 11.0903 25.0698 -13.9 1.92388e-007 2.14354e-007 1.19157e-006 -1.22385 -21.4064 14.5137 116.413 82.216 -115.139 -27.2498 52.3502 47.7369 1.55098e-006 -4.99568e-006 -2.47125e-007 
0.00591418 -20.009 -1.13684 -2.22052e-007 21.596 -5.64192e-008 -0.249267 2.11111 -0.179428 -0.492414 4.22296 -0.350014 -0.492414 4.22295 -0.350014 -5.89722e-006 6.99688 -5.03227e-006 1.87696e-007 10.8026 -1.70677e-007 5.13656 11.5801 -7.50576 9.26034 5.18805 24.6272 -25.0077 4.41317 -5.83532 -4.56047 -27.888 -7.55607 -2.30129e-007 3.75709e-008 8.03791e-007 -1.3276e-005 2.36963e-006 -1.46952e-006 7.95139e-016 1.68704e-006 -1.59028e-015 -2.30129e-007 3.75709e-008 8.03791e-007 -0.0128483 0.00233165 8.6723e-005 -5.42711e-008 1.64015e-006 1.73277e-006 -2.30129e-007 3.75709e-008 8.03791e-007 -0.0160529 0.00299774 0.000859142 -4.60245e-007 1.76224e-006 1.60755e-006 -2.30129e-007 3.75709e-008 8.03791e-007 -0.0125818 0.00312023 0.0028258 4.62803e-007 1.60387e-006 1.16468e-006 -2.30129e-007 3.75709e-008 8.03791e-007 -1.3276e-005 2.36963e-006 -1.46952e-006 7.95139e-016 1.68704e-006 -1.59028e-015 2.64443 2.77382 14.1747 -9.82583 -15.2555 13.9418 13.2409 -34.974 13.1486 0.981998 1.17517 -28.696 9.60552e-008 4.14495e-007 8.39773e-007 -1.98785e-016 -2.38542e-015 -1.59028e-015 -3.18055e-015 -1.59028e-015 3.18055e-015 9.60552e-008 4.14495e-007 8.39773e-007 0.0129626 0.00232235 -8.51962e-005 4.37326e-015 -3.18055e-015 -1.59028e-015 9.60552e-008 4.14495e-007 8.39773e-007 0.0163311 0.00303228 -0.000873801 -9.59764e-008 1.72228e-006 -8.3978e-007 9.60552e-008 4.14495e-007 8.39773e-007 0.0145532 0.00366284 -0.00324924 -1.01228e-005 4.79484e-006 -2.07498e-006 9.60552e-008 4.14495e-007 8.39773e-007 -1.98785e-016 -2.38542e-015 -1.59028e-015 -3.18055e-015 -1.59028e-015 3.18055e-015 1.34471 -19.6277 -14.7426 -136.922 80.8077 135.106 11.0898 25.0702 -13.8989 1.60876e-006 -1.18739e-007 -8.53077e-007 -1.24239 -20.925 14.484 116.231 82.2312 -114.959 -27.2484 52.351 47.7352 -6.23104e-006 -4.6128e-006 1.24853e-006 
